<svg width="25" height="25" viewBox="0 0 25 25" fill="none" xmlns="http://www.w3.org/2000/svg">
<g clip-path="url(#clip0_102_53)">
<path d="M18.9852 8.26392C18.7952 8.07251 18.4861 8.07124 18.2946 8.26114C18.1032 8.45108 18.102 8.76026 18.2919 8.95171L18.2948 8.95474C18.3899 9.05059 18.5145 9.09834 18.6393 9.09834C18.7637 9.09834 18.8883 9.05078 18.9839 8.95596C19.1754 8.76602 19.1751 8.45537 18.9852 8.26392Z" fill="#6D1FEE"/>
<path d="M24.8569 14.1358L20.3219 9.60072C20.1312 9.4101 19.822 9.4101 19.6313 9.60072C19.4406 9.79139 19.4406 10.1006 19.6313 10.2913L23.2315 13.8914H14.6463C13.9341 13.8914 13.3547 13.312 13.3547 12.5999V4.01473L16.8305 7.49042C17.0211 7.68104 17.3303 7.68104 17.521 7.49042C17.7117 7.29974 17.7117 6.99056 17.521 6.79984L13.1104 2.38925C12.9197 2.19862 12.6105 2.19862 12.4199 2.38925L4.63568 10.1736C4.44501 10.3642 4.44501 10.6734 4.63568 10.8641L16.3822 22.6106C16.4738 22.7022 16.598 22.7537 16.7275 22.7537C16.857 22.7537 16.9812 22.7022 17.0727 22.6106L24.857 14.8264C24.9485 14.7348 25 14.6106 25 14.4811C24.9999 14.3516 24.9485 14.2274 24.8569 14.1358ZM12.3783 3.81205V10.0306H6.1597L12.3783 3.81205ZM16.2392 21.0865L6.1597 11.0071H12.3783V12.5999C12.3783 13.8505 13.3957 14.868 14.6464 14.868H16.2392V21.0865ZM17.2157 21.0866V14.868H23.4342L17.2157 21.0866Z" fill="#6D1FEE"/>
<path d="M3.35112 12.4023H0.488281C0.218604 12.4023 0 12.6209 0 12.8906C0 13.1602 0.218604 13.3788 0.488281 13.3788H3.35112C3.6208 13.3788 3.8394 13.1602 3.8394 12.8906C3.8394 12.6209 3.6208 12.4023 3.35112 12.4023Z" fill="#6D1FEE"/>
<path d="M4.80688 12.4023H4.79956C4.52988 12.4023 4.31128 12.6209 4.31128 12.8906C4.31128 13.1602 4.52988 13.3788 4.79956 13.3788H4.80688C5.07656 13.3788 5.29517 13.1602 5.29517 12.8906C5.29517 12.6209 5.07656 12.4023 4.80688 12.4023Z" fill="#6D1FEE"/>
<path d="M2.05154 7.27548H0.488892C0.219214 7.27548 0.000610352 7.49413 0.000610352 7.76376C0.000610352 8.03339 0.219214 8.25204 0.488892 8.25204H2.05154C2.32122 8.25204 2.53982 8.03339 2.53982 7.76376C2.53982 7.49413 2.32122 7.27548 2.05154 7.27548Z" fill="#6D1FEE"/>
<path d="M5.49368 7.27548H3.64661C3.37693 7.27548 3.15833 7.49413 3.15833 7.76376C3.15833 8.03339 3.37693 8.25204 3.64661 8.25204H5.49368C5.76335 8.25204 5.98196 8.03339 5.98196 7.76376C5.98196 7.49413 5.76335 7.27548 5.49368 7.27548Z" fill="#6D1FEE"/>
<path d="M6.55671 15.0878H3.82239C3.55271 15.0878 3.33411 15.3065 3.33411 15.5761C3.33411 15.8457 3.55271 16.0644 3.82239 16.0644H6.55671C6.82639 16.0644 7.045 15.8457 7.045 15.5761C7.045 15.3065 6.82634 15.0878 6.55671 15.0878Z" fill="#6D1FEE"/>
<path d="M8.69184 18.2127H1.80713C1.53745 18.2127 1.31885 18.4314 1.31885 18.701C1.31885 18.9706 1.53745 19.1893 1.80713 19.1893H8.69184C8.96152 19.1893 9.18012 18.9706 9.18012 18.701C9.18012 18.4314 8.96152 18.2127 8.69184 18.2127Z" fill="#6D1FEE"/>
</g>
<defs>
<clipPath id="clip0_102_53">
<rect width="25" height="25" fill="white"/>
</clipPath>
</defs>
</svg>
